<?xml version="1.0" standalone="no"?>
<!DOCTYPE svg PUBLIC "-//W3C//DTD SVG 20010904//EN"
 "http://www.w3.org/TR/2001/REC-SVG-20010904/DTD/svg10.dtd">
<svg version="1.0" xmlns="http://www.w3.org/2000/svg"
 width="2048.000000pt" height="1152.000000pt" viewBox="0 0 2048.000000 1152.000000"
 preserveAspectRatio="xMidYMid meet">

<g transform="translate(0.000000,1152.000000) scale(0.100000,-0.100000)"
fill="#000000" stroke="none">
<path d="M13925 11486 c-16 -14 -82 -66 -145 -117 -409 -328 -824 -759 -1111
-1154 -455 -625 -741 -1264 -879 -1965 -79 -403 -93 -613 -89 -1355 4 -644 7
-624 -68 -510 -42 64 -330 450 -856 1147 -152 202 -296 393 -320 425 -24 32
-86 114 -137 183 -254 337 -392 494 -759 860 -343 343 -717 675 -1016 903
-315 240 -523 385 -715 499 -52 31 -266 148 -475 261 -421 226 -414 222 -643
354 -90 51 -166 93 -169 93 -7 0 4 -140 17 -225 5 -33 19 -127 30 -210 38
-277 113 -635 177 -845 150 -495 505 -1112 924 -1609 57 -67 120 -142 139
-165 219 -261 629 -631 932 -842 122 -85 325 -204 437 -256 177 -83 199 -93
396 -181 433 -193 735 -312 1110 -437 l140 -47 -80 -7 c-262 -24 -651 -89
-879 -147 -628 -160 -987 -362 -1435 -808 -454 -454 -671 -894 -671 -1367 0
-340 122 -615 390 -884 302 -301 797 -557 1389 -716 90 -24 166 -46 168 -48 3
-3 -8 -24 -24 -48 -41 -60 -78 -148 -104 -248 -20 -72 -23 -109 -23 -240 1
-206 28 -306 122 -453 l31 -49 263 135 c145 74 364 190 488 258 341 186 403
217 446 227 49 11 82 0 89 -30 3 -13 -3 -112 -15 -221 -29 -281 -27 -337 10
-337 11 0 108 33 217 74 589 219 1475 616 1651 739 124 88 163 159 237 426 62
227 112 516 140 796 8 88 20 210 27 270 7 62 12 250 12 430 0 305 -1 327 -27
469 -34 185 -49 244 -94 371 -103 290 -248 531 -495 827 -112 134 -138 173
-138 208 0 35 18 59 134 180 282 292 534 660 717 1045 103 217 220 528 275
730 123 457 191 836 229 1287 8 101 19 228 25 283 15 156 29 690 35 1408 4
361 5 657 3 657 -2 0 -16 -11 -33 -24z m-4354 -6156 c113 -35 214 -133 262
-254 31 -76 30 -230 -1 -311 -30 -79 -80 -145 -144 -193 -83 -61 -137 -77
-253 -76 -127 0 -188 23 -271 98 -103 93 -150 211 -141 350 8 135 63 241 165
322 103 81 250 106 383 64z"/>
<path d="M12675 1470 c-164 -41 -386 -100 -420 -111 -16 -5 -78 -22 -136 -38
-59 -16 -198 -59 -310 -95 -112 -36 -251 -79 -309 -96 -206 -62 -416 -132
-454 -154 -63 -34 -76 -71 -76 -208 l0 -118 48 0 c66 0 211 41 747 210 138 43
381 115 540 160 466 131 501 144 529 190 23 41 56 161 56 208 0 89 -36 98
-215 52z"/>
<path d="M8847 1473 c-13 -12 -7 -136 13 -298 23 -195 87 -619 99 -660 5 -16
15 -59 22 -93 7 -38 18 -66 27 -69 14 -6 99 33 217 100 327 186 477 257 544
257 110 0 610 -370 787 -582 112 -134 131 -105 120 192 -3 107 -13 265 -22
350 -8 85 -19 297 -23 470 -5 173 -9 316 -10 318 -8 17 -65 -11 -396 -193
-231 -126 -391 -205 -418 -205 -37 0 -159 45 -389 144 -109 47 -403 190 -473
230 -85 49 -88 50 -98 39z"/>
</g>
</svg>
