<?xml version="1.0" standalone="no"?>
<!DOCTYPE svg PUBLIC "-//W3C//DTD SVG 20010904//EN"
 "http://www.w3.org/TR/2001/REC-SVG-20010904/DTD/svg10.dtd">
<svg version="1.0" xmlns="http://www.w3.org/2000/svg"
 width="600.000000pt" height="600.000000pt" viewBox="0 0 600.000000 600.000000"
 preserveAspectRatio="xMidYMid meet">

<g transform="translate(0.000000,600.000000) scale(0.100000,-0.100000)"
fill="#000000" stroke="none">
<path d="M383 3851 c-17 -11 -34 -28 -37 -39 -4 -11 -7 -377 -8 -813 -1 -617
1 -799 11 -817 29 -55 -130 -52 2660 -52 1652 0 2589 4 2605 10 14 5 35 24 46
42 19 32 20 51 20 811 0 852 1 830 -59 861 -27 14 -288 16 -2618 16 -2538 0
-2589 0 -2620 -19z m5090 -172 c15 -11 31 -37 37 -57 8 -25 10 -233 8 -649
l-3 -611 -24 -26 c-14 -15 -42 -31 -62 -36 -61 -17 -2077 -9 -2106 8 -54 30
-53 21 -53 692 0 563 2 625 17 650 9 16 26 33 37 39 14 6 387 10 1072 10 1046
1 1051 1 1077 -20z m-4483 -189 c69 -19 126 -64 155 -123 73 -149 23 -322
-113 -389 -41 -20 -66 -24 -202 -28 l-155 -5 -3 -167 -2 -168 -90 0 -90 0 0
445 0 445 233 0 c127 0 248 -5 267 -10z m702 -248 c82 -36 153 -117 179 -204
15 -51 12 -178 -5 -227 -54 -149 -209 -239 -369 -212 -178 30 -267 132 -275
316 -3 74 0 100 17 146 37 99 121 173 225 200 51 14 179 3 228 -19z m649 17
c19 -7 37 -15 42 -18 4 -4 -4 -39 -19 -78 l-26 -70 -42 15 c-61 22 -101 4
-129 -57 -18 -40 -21 -71 -25 -243 l-4 -198 -84 0 -84 0 0 320 0 320 23 5 c13
4 48 5 77 3 52 -3 55 -5 60 -32 5 -27 6 -28 20 -11 21 25 89 55 126 55 17 0
46 -5 65 -11z m643 -23 c30 -17 54 -42 68 -69 22 -40 23 -56 26 -299 l4 -258
-86 0 -86 0 -1 188 c-1 294 -11 329 -100 339 -35 4 -51 0 -79 -19 -64 -43 -70
-67 -70 -300 l0 -208 -85 0 -85 0 0 325 0 325 75 0 75 0 0 -29 0 -30 46 26
c63 35 97 43 180 39 56 -2 82 -9 118 -30z"/>
<path d="M3470 3035 l0 -425 79 0 79 0 4 208 c3 183 5 210 22 235 41 60 132
77 180 32 l26 -24 0 -226 0 -225 85 0 85 0 0 218 c0 119 -5 237 -11 261 -23
101 -89 145 -214 145 -74 0 -99 -6 -167 -42 -5 -2 -8 57 -8 132 l0 136 -80 0
-80 0 0 -425z"/>
<path d="M4787 3453 c-4 -3 -7 -195 -7 -425 l0 -418 80 0 c71 0 80 2 80 18 0
18 3 17 48 -5 66 -32 136 -39 203 -20 74 22 122 65 161 144 31 63 32 73 32
172 0 88 -4 115 -23 158 -62 142 -228 200 -379 133 l-45 -20 6 135 5 135 -77
0 c-43 0 -81 -3 -84 -7z m378 -376 c42 -42 59 -102 53 -187 -6 -78 -28 -124
-71 -150 -40 -25 -73 -25 -117 -1 -54 29 -80 88 -80 184 0 128 44 187 139 187
35 0 49 -6 76 -33z"/>
<path d="M4122 2978 c3 -238 4 -244 28 -288 38 -67 94 -95 190 -94 78 0 122
15 168 57 l22 20 0 -31 0 -32 74 0 c41 0 76 4 78 10 2 5 2 143 0 305 l-3 295
-79 0 -80 0 -1 -192 c0 -218 -7 -251 -58 -285 -50 -33 -105 -31 -142 6 l-29
29 0 221 0 221 -86 0 -86 0 4 -242z"/>
<path d="M670 3225 l0 -125 105 0 c158 0 215 33 215 125 0 95 -50 125 -209
125 l-111 0 0 -125z"/>
<path d="M1482 3113 c-42 -20 -68 -57 -83 -117 -46 -182 101 -327 237 -234 99
68 96 278 -5 345 -41 27 -101 30 -149 6z"/>
</g>
</svg>
