<?xml version="1.0" standalone="no"?>
<!DOCTYPE svg PUBLIC "-//W3C//DTD SVG 20010904//EN"
 "http://www.w3.org/TR/2001/REC-SVG-20010904/DTD/svg10.dtd">
<svg version="1.0" xmlns="http://www.w3.org/2000/svg"
 width="900.000000pt" height="240.000000pt" viewBox="0 0 900.000000 240.000000"
 preserveAspectRatio="xMidYMid meet">

<g transform="translate(0.000000,240.000000) scale(0.100000,-0.100000)"
fill="#000000" stroke="none">
<path d="M907 1814 c70 -47 143 -98 162 -113 31 -23 46 -27 143 -32 132 -8
199 -35 244 -101 26 -37 29 -49 29 -122 0 -72 -3 -86 -28 -122 -17 -25 -49
-53 -79 -69 -45 -25 -66 -29 -167 -34 l-116 -6 -70 -51 c-38 -28 -112 -78
-162 -112 l-93 -63 0 -264 0 -265 135 0 135 0 0 265 0 265 88 0 87 0 22 -42
c13 -24 68 -128 123 -233 55 -104 107 -204 117 -222 20 -38 29 -40 194 -33
l126 5 -109 195 c-61 107 -132 237 -160 287 l-49 93 53 25 c136 64 204 164
227 330 34 239 -91 425 -324 485 -69 18 -111 20 -367 20 l-288 0 127 -86z"/>
<path d="M1910 1180 l0 -720 183 -2 c356 -4 772 -4 790 -1 15 4 17 18 17 124
l0 119 -362 2 -363 3 -3 188 c-2 173 -1 187 15 188 10 0 83 1 163 2 l145 2 0
115 0 115 -162 3 -163 2 0 165 0 165 334 0 c310 0 335 1 340 18 2 9 5 65 4
125 l0 107 -469 0 -469 0 0 -720z"/>
<path d="M3040 1179 l0 -721 308 4 c302 4 308 4 388 31 263 88 393 292 411
647 9 182 -35 365 -118 489 -71 107 -164 177 -298 225 -103 37 -191 46 -450
46 l-241 0 0 -721z m568 454 c107 -36 177 -103 224 -212 32 -76 32 -76 32
-251 0 -154 -3 -182 -22 -234 -64 -176 -159 -230 -402 -231 l-135 0 -3 469
c-2 355 1 471 10 477 20 13 247 -1 296 -18z"/>
<path d="M4102 1843 l3 -58 198 -3 197 -2 0 -659 0 -659 23 -6 c29 -8 71 -8
91 0 14 6 16 73 16 665 l0 659 200 0 200 0 0 60 0 60 -465 0 -466 0 3 -57z"/>
<path d="M5143 1453 c-1 -247 2 -509 6 -583 7 -126 10 -140 43 -210 78 -166
201 -234 423 -234 177 -1 278 35 361 127 40 45 84 123 84 150 0 9 4 18 9 21
17 11 21 121 21 641 l1 530 -60 3 -60 3 -4 -543 c-2 -326 -8 -561 -14 -588
-15 -63 -39 -105 -86 -151 -61 -58 -127 -79 -247 -79 -114 0 -189 22 -246 73
-41 35 -58 65 -84 150 -19 58 -20 94 -20 600 l0 537 -63 0 -63 0 -1 -447z"/>
<path d="M6240 1898 c0 -2 -1 -326 -3 -720 l-2 -718 301 0 c329 0 386 6 482
52 92 45 192 167 192 236 0 11 5 24 10 27 16 10 12 141 -6 203 -19 65 -52 121
-96 164 -35 34 -122 78 -155 78 -28 0 -53 10 -53 21 0 5 7 9 15 9 8 0 40 10
72 21 57 21 143 94 143 122 0 6 7 26 16 42 23 43 23 193 1 226 -10 13 -17 30
-17 39 0 26 -85 114 -139 143 -88 48 -157 57 -473 57 -159 0 -288 -1 -288 -2z
m640 -134 c68 -20 96 -39 131 -88 27 -36 29 -46 29 -125 0 -127 -29 -175 -140
-229 -54 -27 -58 -27 -297 -30 l-243 -3 0 245 0 246 233 0 c184 0 245 -3 287
-16z m-26 -610 c106 -27 176 -80 221 -169 16 -30 20 -58 20 -129 -1 -81 -3
-95 -27 -131 -38 -58 -75 -90 -143 -122 l-60 -28 -250 0 -250 0 -3 298 -2 297
216 0 c164 0 231 -4 278 -16z"/>
<path d="M7333 1180 l2 -720 326 0 c179 0 373 -3 430 -6 57 -3 110 -1 117 4 7
5 15 31 19 59 5 47 4 51 -18 58 -13 4 -186 6 -384 4 l-360 -4 -3 283 c-2 264
-1 282 15 283 10 0 65 1 123 2 l105 2 3 58 3 57 -126 0 -125 0 0 260 c0 241 1
260 18 260 9 0 170 2 357 3 l340 2 0 55 0 55 -422 3 -422 2 2 -720z"/>
<path d="M610 1451 c0 -187 2 -341 4 -341 4 0 476 327 484 335 4 4 -5 11 -262
190 -103 72 -196 136 -207 144 -19 13 -19 9 -19 -328z"/>
</g>
</svg>
