<?xml version="1.0" standalone="no"?>
<!DOCTYPE svg PUBLIC "-//W3C//DTD SVG 20010904//EN"
 "http://www.w3.org/TR/2001/REC-SVG-20010904/DTD/svg10.dtd">
<svg version="1.0" xmlns="http://www.w3.org/2000/svg"
 width="728.000000pt" height="203.000000pt" viewBox="0 0 728.000000 203.000000"
 preserveAspectRatio="xMidYMid meet">

<g transform="translate(0.000000,203.000000) scale(0.100000,-0.100000)"
fill="#000000" stroke="none">
<path d="M4922 1490 c-112 -24 -239 -120 -291 -220 -58 -112 -79 -305 -47
-426 37 -141 142 -262 268 -310 63 -24 78 -26 191 -22 113 3 127 6 190 35 167
79 266 250 267 460 0 156 -52 286 -155 381 -84 78 -149 103 -280 108 -55 2
-119 -1 -143 -6z m227 -194 c108 -75 153 -272 100 -441 -34 -111 -122 -185
-220 -185 -56 0 -133 42 -169 92 -99 136 -88 384 21 503 47 51 84 65 165 62
49 -2 70 -9 103 -31z"/>
<path d="M5842 1485 c-29 -8 -66 -22 -83 -30 -43 -23 -108 -91 -125 -131 -18
-43 -18 -174 -1 -217 24 -55 117 -132 199 -162 154 -57 208 -96 208 -151 0
-54 -19 -82 -67 -100 -56 -22 -173 -15 -260 16 -67 23 -83 21 -83 -12 0 -11
-7 -45 -16 -75 -11 -37 -13 -58 -6 -65 6 -6 41 -19 78 -29 98 -27 288 -27 363
1 143 52 211 142 211 277 0 84 -22 135 -80 187 -39 35 -212 126 -242 126 -7 1
-31 13 -53 28 -94 66 -61 159 63 178 43 6 144 -8 195 -28 15 -6 30 -8 33 -6 5
6 44 142 44 156 0 4 -21 16 -47 26 -66 25 -258 32 -331 11z"/>
<path d="M610 1483 c0 -4 11 -26 25 -48 13 -22 36 -62 51 -90 15 -27 53 -96
85 -153 33 -57 59 -107 59 -110 0 -4 9 -18 20 -32 11 -14 20 -31 20 -38 0 -7
-26 -59 -59 -115 -32 -56 -70 -122 -83 -147 -14 -25 -46 -81 -72 -125 -25 -44
-46 -86 -46 -93 0 -10 26 -12 113 -10 l112 3 29 60 c17 33 51 107 77 165 26
57 51 105 55 107 5 1 48 -73 95 -165 l86 -167 117 -3 c64 -1 116 0 116 4 0 8
-52 102 -144 259 -42 72 -89 153 -103 182 l-26 52 48 82 c26 46 55 97 65 113
10 17 47 82 84 145 36 63 63 118 60 122 -6 11 -204 12 -221 1 -14 -9 -120
-230 -138 -286 -6 -22 -17 -42 -22 -43 -6 -2 -19 18 -29 44 -11 26 -46 102
-79 168 l-60 120 -117 3 c-65 1 -118 -1 -118 -5z"/>
<path d="M1470 1485 c0 -2 39 -125 86 -272 47 -148 101 -317 120 -378 19 -60
49 -155 67 -210 l33 -100 130 0 129 0 55 165 c77 229 262 772 267 788 4 9 -22
12 -110 12 l-115 0 -11 -32 c-5 -18 -24 -80 -41 -138 -17 -58 -46 -154 -65
-215 -43 -138 -85 -311 -85 -347 0 -18 -5 -28 -15 -28 -10 0 -15 10 -15 28 0
15 -14 79 -30 142 -40 153 -41 155 -107 385 l-58 200 -118 3 c-64 1 -117 0
-117 -3z"/>
<path d="M2460 1000 l0 -490 105 0 105 0 0 490 0 490 -105 0 -105 0 0 -490z"/>
<path d="M2888 1479 l-28 -11 0 -473 c0 -422 2 -474 16 -479 9 -3 93 -6 187
-6 197 0 306 19 404 69 82 41 171 138 209 227 27 65 29 77 29 209 0 181 -18
235 -109 329 -62 64 -111 95 -195 123 -57 19 -469 29 -513 12z m392 -164 c85
-22 130 -59 170 -140 32 -64 35 -76 35 -160 -1 -218 -126 -345 -340 -345 l-75
0 0 323 c0 178 3 327 7 330 12 12 147 7 203 -8z"/>
<path d="M3850 1005 l0 -485 310 0 310 0 0 85 0 85 -200 0 -200 0 0 120 0 120
180 0 180 0 0 85 0 85 -180 0 -180 0 0 105 0 105 188 2 187 3 3 45 c2 25 1 64
-3 88 l-6 42 -295 0 -294 0 0 -485z"/>
</g>
</svg>
